<?xml version="1.0" encoding="utf-8"?>
<!-- Generator: Adobe Illustrator 23.0.1, SVG Export Plug-In . SVG Version: 6.00 Build 0)  -->
<svg version="1.1" id="Layer_1" xmlns="http://www.w3.org/2000/svg" xmlns:xlink="http://www.w3.org/1999/xlink" x="0px" y="0px"
	 viewBox="0 0 1366 768" style="enable-background:new 0 0 1366 768;" xml:space="preserve">
<style type="text/css">
	.st0{opacity:0.5;}
	.st1{fill:#FEFEFE;}
	.st2{fill:#BE0800;}
	.st3{fill:#FCD300;}
</style>
<g>
	<g class="st0">
		<path class="st1" d="M204-95c320,0,640,0,960,0c0,320,0,640,0,960c-320,0-640,0-960,0C204,545,204,225,204-95z M664.65,528.11
			c0.41,0.19,0.82,0.55,1.23,0.56c57.95,0.06,115.89,0.1,173.84,0.08c1.43,0,3.44,0.78,4.53-2.58
			c-27.84-8.2-55.08-18.42-84.91-14.87c-5.3-0.09-10.63,0.13-15.9-0.31C715.4,508.64,690.32,519.7,664.65,528.11z M714.36,545.01
			c-50.17,1.4-101.82-10.27-149.36,16.92c48.88,0,97.52,0.01,146.16-0.04c1.1,0,2.2-0.54,3.3-0.83c51.84,0,103.68,0,155.52,0
			c-14.9,6.42-28.4,16.29-44.34,16.51c-45.77,0.64-91.56,0.29-137.34,0.29c-5.11,0-10.22-1.72-15.31,0.12
			c-48.94-0.08-97.88-0.41-146.82,0.01c-7.2,0.06-13.42,5.42-20.54,9.87c5.79,4.25,10.43,7.3,16.65,7.29
			c30.31-0.06,60.61,0.05,90.92-0.01c19.96-0.04,39.92-0.25,59.89-0.39c35,0,70,0,106.04,0c-4.83,4.21-9.77,3.83-14.13,5.23
			c-18.96,6.12-37.66,12.43-58.31,11.35c-22.39-1.17-44.9-0.15-67.36-0.08c-27.54,0-55.08,0-85.91,0
			c18.3,6.4,33.48,11.72,48.67,17.03c19.88,0,39.77,0,59.65,0c0.05,0.77,0.09,1.53,0.14,2.3c-7.79,2.75-15.59,5.5-25.06,8.84
			c15.71,4.92,29.5,9.42,43.41,13.55c20.9,6.21,41.73,12.77,62.89,17.97c12.16,2.99,23.71,11.9,36.63,8.06
			c23.6-7.02,46.79-15.46,70.01-23.68c18.26-6.46,35.48-15.33,53.02-23.48c19.07-8.86,36.67-18.95,47.03-38.36
			c3.29-6.16,2.74-11.13-1.36-16.91c-5.55-7.82-12.37-13.83-20.68-18.23c-10.1-5.35-19.85-13.13-31.44-13.23
			C835.66,544.6,775.01,544.95,714.36,545.01z M951.7,374.15c0-21.13-0.13-42.53,0.07-63.93c0.07-7.56-2.13-14.09-6.83-19.84
			c-13.2-16.14-31.42-24.97-49.81-33.16c-67.21-29.9-138.07-48.76-209.01-66.91c-77.51-19.83-152.9-45.07-224.25-81.5
			c-32.61-16.65-64.2-35.09-90.41-64.26c5.7,22.56,15.93,40.76,28.49,57.59c54.01,72.39,126.12,120.06,210.81,147.89
			c62.87,20.66,127.57,35.71,190.88,55.14C854.42,321.39,907.94,336.96,951.7,374.15z M406.86,294.55
			c10.19,21.76,22.82,42.97,38.72,62.06c17.6,21.15,36.6,40.56,64.61,47.96c24.62,6.51,49.09,13.56,73.66,20.25
			c16.08,4.38,32.23,8.53,49.39,13.07c-17.74,8.76-35.26,11.69-56.03,9.85c58.15,17.14,114.54,31.05,170.69,45.85
			c69.61,18.34,141.71,30.11,203.58,70.86c0-17.14-0.75-35.3,0.23-53.36c0.83-15.09-5.55-25.58-16.98-33.93
			c-24.11-17.62-51.74-27.62-79.63-37.35c-67.84-23.67-137.66-40.29-206.91-58.97C565.39,358.5,480.77,340.84,406.86,294.55z
			 M762.17,682.62c-2.59-0.94-3.64-1.38-4.73-1.71c-42.09-12.65-84.52-24.25-126.18-38.17c-58.5-19.55-119.43-34.57-166.26-78.65
			c0,16.38,1.28,33.63-0.32,50.61c-2.13,22.63,8.8,37.04,26.05,48.45c31.41,20.77,66.64,33.18,101.77,45.7
			c20.73,7.39,40.17,15.36,64.05,6.08C690.25,701.82,725.8,693.48,762.17,682.62z M738.45,501.39c-0.1-0.71-0.2-1.41-0.3-2.12
			c-10.73-2.86-21.36-6.13-32.2-8.51c-31.31-6.86-61.84-16.51-92.69-25.04c-6.3-1.74-12.36-6.24-20.02-3.02
			c-11.64,4.9-23.81,8.4-35.38,13.69c-27.98,12.78-57.94,21.68-80.73,44.09c-9.04,8.89-14.88,26.72-10.23,34.47
			c7.52,12.53,18.36,21.64,30.54,29.28c2.65,1.66,5.68,1.21,8.5-0.47c16.67-9.97,34.43-17.74,52.54-24.5
			c29.71-11.08,59.02-23.39,89.89-31.1c17.56-4.39,34.01-12.21,51.96-15.61C713.29,510.11,725.76,505.2,738.45,501.39z
			 M779.88,406.06c-0.22,2.38,1.08,2.6,2.43,3.01c19.78,6.01,39.63,11.79,59.27,18.2c12.07,3.94,23.59,9.65,35.78,13.04
			c5.9,1.64,11.53,7.38,17.85,4.59c19.73-8.7,39.38-17.94,51.89-36.78c5.38-8.09,5.62-16.59-0.13-25.08
			c-6.59-9.74-16.69-15.33-25.52-22.4c-4.44-3.55-9.68-6.09-15.66-3.31c-11.57,5.38-22.87,11.43-34.71,16.13
			c-19.05,7.57-38.66,13.74-57.61,21.55C802.43,399.57,790.68,401.76,779.88,406.06z"/>
		<path class="st2" d="M951.7,374.15c-43.76-37.2-97.28-52.76-150.07-68.97c-63.31-19.44-128.01-34.48-190.88-55.14
			c-84.69-27.83-156.81-75.5-210.81-147.89c-12.55-16.83-22.79-35.04-28.49-57.59c26.22,29.17,57.8,47.61,90.41,64.26
			c71.34,36.42,146.74,61.66,224.25,81.5c70.94,18.15,141.8,37,209.01,66.91c18.4,8.19,36.61,17.02,49.81,33.16
			c4.7,5.75,6.91,12.28,6.83,19.84C951.57,331.62,951.7,353.02,951.7,374.15z"/>
		<path class="st2" d="M406.86,294.55c73.91,46.29,158.53,63.95,241.33,86.29c69.26,18.68,139.07,35.3,206.91,58.97
			c27.88,9.73,55.52,19.73,79.63,37.35c11.43,8.35,17.8,18.84,16.98,33.93c-0.99,18.06-0.23,36.21-0.23,53.36
			c-61.86-40.75-133.97-52.51-203.58-70.86c-56.15-14.8-112.54-28.71-170.69-45.85c20.77,1.84,38.29-1.08,56.03-9.85
			c-17.17-4.53-33.31-8.69-49.39-13.07c-24.57-6.69-49.04-13.74-73.66-20.25c-28-7.4-47-26.81-64.61-47.96
			C429.69,337.52,417.05,316.3,406.86,294.55z"/>
		<path class="st3" d="M672.97,577.98c5.09-1.85,10.21-0.12,15.31-0.12c45.78,0,91.57,0.35,137.34-0.29
			c15.95-0.22,29.45-10.09,44.34-16.51c-51.84,0-103.68,0-155.52,0c-0.03-5.35-0.06-10.7-0.1-16.05
			c60.65-0.06,121.31-0.41,181.96,0.1c11.59,0.1,21.34,7.88,31.44,13.23c8.3,4.4,15.13,10.41,20.68,18.23
			c4.1,5.78,4.65,10.75,1.36,16.91c-10.36,19.41-27.96,29.5-47.03,38.36c-17.54,8.15-34.77,17.02-53.02,23.48
			c-23.23,8.22-46.42,16.66-70.01,23.68c-12.92,3.85-24.47-5.07-36.63-8.06c-21.16-5.2-41.99-11.76-62.89-17.97
			c-13.9-4.13-27.7-8.63-43.41-13.55c9.48-3.34,17.27-6.09,25.06-8.84c-0.05-0.77-0.09-1.53-0.14-2.3c-19.88,0-39.77,0-59.66,0
			c12.2,0,24.41,0,37.24,0c0-6.17,0-11.6,0-17.03c22.46-0.07,44.96-1.09,67.36,0.08c20.65,1.08,39.35-5.23,58.31-11.35
			c4.36-1.41,9.3-1.03,14.13-5.23c-36.04,0-71.04,0-106.04,0C673.03,589.16,673,583.57,672.97,577.98z"/>
		<path class="st2" d="M762.17,682.62c-36.37,10.86-71.92,19.21-105.61,32.31c-23.87,9.28-43.32,1.31-64.05-6.08
			c-35.13-12.52-70.36-24.93-101.77-45.7c-17.25-11.41-28.18-25.82-26.05-48.45c1.6-16.98,0.32-34.22,0.32-50.61
			c46.83,44.08,107.76,59.1,166.26,78.65c41.66,13.92,84.1,25.52,126.18,38.17C758.53,681.23,759.58,681.68,762.17,682.62z"/>
		<path class="st3" d="M738.45,501.39c-12.69,3.81-25.16,8.72-38.11,11.17c-17.95,3.4-34.4,11.22-51.96,15.61
			c-30.87,7.72-60.18,20.02-89.89,31.1c-18.11,6.76-35.87,14.53-52.54,24.5c-2.82,1.68-5.84,2.14-8.5,0.47
			c-12.18-7.63-23.03-16.74-30.54-29.28c-4.65-7.75,1.19-25.58,10.23-34.47c22.79-22.41,52.75-31.31,80.73-44.09
			c11.57-5.29,23.74-8.79,35.38-13.69c7.65-3.22,13.72,1.28,20.02,3.02c30.85,8.52,61.38,18.18,92.69,25.04
			c10.83,2.37,21.47,5.65,32.2,8.51C738.25,499.97,738.35,500.68,738.45,501.39z"/>
		<path class="st3" d="M779.88,406.06c10.8-4.3,22.55-6.49,33.59-11.04c18.94-7.81,38.56-13.98,57.61-21.55
			c11.84-4.7,23.14-10.75,34.71-16.13c5.99-2.78,11.22-0.25,15.66,3.31c8.83,7.06,18.94,12.66,25.52,22.4
			c5.74,8.49,5.5,16.99,0.13,25.08c-12.51,18.84-32.16,28.08-51.89,36.78c-6.32,2.78-11.95-2.95-17.85-4.59
			c-12.19-3.39-23.72-9.1-35.78-13.04c-19.64-6.42-39.49-12.2-59.27-18.2C780.96,408.66,779.66,408.44,779.88,406.06z"/>
		<path class="st2" d="M672.97,577.98c0.03,5.59,0.06,11.18,0.09,16.77c-19.96,0.14-39.92,0.35-59.88,0.39
			c-30.31,0.06-60.61-0.04-90.92,0.01c-6.22,0.01-10.86-3.04-16.65-7.29c7.12-4.46,13.34-9.81,20.54-9.87
			C575.08,577.57,624.03,577.9,672.97,577.98z"/>
		<path class="st2" d="M714.36,545.01c0.03,5.35,0.06,10.7,0.1,16.05c-1.1,0.29-2.2,0.83-3.3,0.83
			c-48.64,0.04-97.28,0.04-146.16,0.04C612.54,534.74,664.18,546.4,714.36,545.01z"/>
		<path class="st3" d="M759.33,511.3c29.83-3.55,57.07,6.67,84.91,14.87c-1.09,3.36-3.1,2.58-4.53,2.58
			c-57.95,0.02-115.89-0.02-173.84-0.08c-0.41,0-0.82-0.36-1.23-0.55c31.33,0,62.66,0,94.69,0
			C759.33,522.16,759.33,516.73,759.33,511.3z"/>
		<path class="st2" d="M759.33,511.3c0,5.43,0,10.85,0,16.81c-32.03,0-63.36,0-94.69,0c25.67-8.41,50.75-19.47,78.79-17.12
			C748.71,511.43,754.03,511.22,759.33,511.3z"/>
		<path class="st2" d="M639.3,611.26c0,5.43,0,10.86,0,17.03c-12.83,0-25.04,0-37.24,0c-15.18-5.31-30.37-10.63-48.66-17.03
			C584.23,611.26,611.76,611.26,639.3,611.26z"/>
	</g>
</g>
</svg>
